# xmcd
#
# Track frame offsets:
#	150
#	12910
#	22302
#	30289
#	42038
#	51168
#	61380
#	70765
#	80832
#	89369
#	100622
#	110342
#	119709
#	129709
#	139511
#	149529
#	160911
#	172082
#	183154
#	194332
#	204183
#	218106
#	229786
#	239388
#	248859
#
# Disc length: 3465 seconds
#
# Revision: 0
# Processed by: cddbd v1.5.1PL2 Copyright (c) Steve Scherf et al.
# Submitted via: dBpowerAMP V4.0
#
DISCID=630d8719
DTITLE=Bobby Charles - Later Alligator
DYEAR=2000
DGENRE=Swamp Pop
TTITLE0=See You Later Alligator 
TTITLE1=Let The Four Winds Blow
TTITLE2=What Can I Do?
TTITLE3=Put Your Arms Around Me Honey 
TTITLE4=Only Time Will Tell
TTITLE5=I'll Turn Square For You 
TTITLE6=Mr. Moon
TTITLE7=On Bended Knee
TTITLE8=At The Jamboree 
TTITLE9=Don't You Know I Love You?
TTITLE10=One Eyed Jack 
TTITLE11=Watch It Sprocket
TTITLE12=Take It Easy Greasy 
TTITLE13=Laura Lee 
TTITLE14=No Use Knockin'
TTITLE15=Why Can't You?
TTITLE16=Yeah! Yeah! 
TTITLE17=I'd Like To Know
TTITLE18=I Ain't Gonna' Do It No More 
TTITLE19=Hey, Good Looking!
TTITLE20=Why Did You Leave?
TTITLE21=Ain't Got No Home 
TTITLE22=You Can Suit Yourself 
TTITLE23=Good Lovin'
TTITLE24=Lonely Street 
EXTD=Vintage Swamp Pop album--Later Alligator--- by the God Father of South Loisiana Swamp Pop Music, Bobby Charles. \nSubmitted by, S.P. Blue 
EXTT0=
EXTT1=
EXTT2=
EXTT3=
EXTT4=
EXTT5=
EXTT6=
EXTT7=
EXTT8=
EXTT9=
EXTT10=
EXTT11=
EXTT12=
EXTT13=
EXTT14=
EXTT15=
EXTT16=
EXTT17=
EXTT18=
EXTT19=
EXTT20=
EXTT21=
EXTT22=
EXTT23=
EXTT24=
PLAYORDER=
